<svg width="20" height="22" viewBox="0 0 20 22" fill="none" xmlns="http://www.w3.org/2000/svg">
<path d="M18.5716 0.299805H1.42423C0.638515 0.299805 0.00012207 0.979492 0.00012207 1.81387V19.7857C0.00012207 20.6201 0.638515 21.2998 1.42423 21.2998H18.5716C19.3573 21.2998 20.0001 20.6201 20.0001 19.7857V1.81387C20.0001 0.979492 19.3573 0.299805 18.5716 0.299805ZM6.04476 18.2998H3.08048V8.27793H6.04923V18.2998H6.04476ZM4.56262 6.90918C3.61173 6.90918 2.84387 6.09824 2.84387 5.10449C2.84387 4.11074 3.61173 3.2998 4.56262 3.2998C5.50905 3.2998 6.28137 4.11074 6.28137 5.10449C6.28137 6.10293 5.51351 6.90918 4.56262 6.90918ZM17.1564 18.2998H14.1921V13.4248C14.1921 12.2623 14.1698 10.767 12.6519 10.767C11.1073 10.767 10.8707 12.0326 10.8707 13.3404V18.2998H7.90637V8.27793H10.7501V9.64668H10.7903C11.1876 8.85918 12.1564 8.02949 13.5983 8.02949C16.5983 8.02949 17.1564 10.1061 17.1564 12.8061V18.2998Z" fill="#1074AF"/>
</svg>
