<svg width="72" height="56" viewBox="0 0 72 56" fill="none" xmlns="http://www.w3.org/2000/svg">
<path fill-rule="evenodd" clip-rule="evenodd" d="M55.5307 34.1157L39.0614 17.4578L55.5307 0.799805L72 17.4578L55.5307 34.1157ZM40.3628 55.7998H33.3654V39.5655C33.3654 37.855 33.0964 36.5597 32.5754 35.6875C32.0545 34.8154 31.2374 34.3791 30.1239 34.3791C29.0463 34.3791 28.0582 34.6338 27.1601 35.1426C26.2614 35.6514 25.1122 36.419 23.7112 37.4311V38.1397V55.7998H16.7183V39.5655C16.7183 37.855 16.4448 36.5597 15.9239 35.6875C15.403 34.8154 14.5858 34.3791 13.4724 34.3791C12.3941 34.3791 11.4059 34.6338 10.5079 35.1426C9.61257 35.6514 8.44276 36.4323 7.00593 37.4861V55.7998H7.62939e-06V29.3642H4.58093L5.76592 32.1984C7.38238 31.0381 9.05317 30.1277 10.7776 29.4735C12.5021 28.8192 14.0105 28.4921 15.3042 28.4921C18.8605 28.4921 21.2676 29.6913 22.5255 32.0898C24.1456 30.9637 25.7942 30.0822 27.4829 29.446C29.1716 28.8105 30.6621 28.4921 31.9558 28.4921C34.9375 28.4921 37.0841 29.3012 38.3957 30.9181C39.7066 32.5349 40.3628 34.9421 40.3628 38.1397V55.7998Z" fill="#06255B"/>
</svg>
