<svg width="86" height="7" viewBox="0 0 86 7" fill="none" xmlns="http://www.w3.org/2000/svg">
<path fill-rule="evenodd" clip-rule="evenodd" d="M12.6774 0.403996H11.0838V6.41586H12.6774V0.403996ZM10.1935 2.78889H7.60188V1.64607H10.1935V0.403996H6.0679V6.41586H10.1963V5.17945H7.60472V3.99693H10.1963V2.78889H10.1935ZM5.10951 0.403996H3.5415V2.75486H1.57085H0.00283547V6.41586H1.57085V4.03947H3.5415V6.41586H5.10951V0.403996ZM1.56801 0.395489H0V1.96084H1.56801V0.395489ZM31.8848 2.81441H32.6617C33.07 2.8059 33.2402 2.74919 33.3621 2.56486C33.4046 2.50531 33.4727 2.38904 33.4727 2.21323C33.4727 2.14517 33.4642 1.93815 33.3366 1.78786C33.1494 1.55532 32.8517 1.55532 32.5937 1.54398H31.8876V2.81441H31.8848ZM32.6702 5.24751C32.8716 5.24184 32.9991 5.23334 33.1041 5.19363C33.2487 5.14259 33.4812 5.00364 33.4812 4.63498C33.4812 4.56976 33.4727 4.42514 33.3706 4.26917C33.192 3.98559 32.8687 3.97708 32.5597 3.97708H31.8848V5.24184L32.6702 5.24751ZM31.8848 6.40451H30.3593V0.395489H32.4235H32.8574C33.7194 0.412503 34.1617 0.537278 34.4878 0.815184C34.7089 0.99951 34.9726 1.32563 34.9726 1.9892C34.9726 2.10547 34.9726 2.18203 34.9471 2.30114C34.9216 2.45143 34.828 2.89665 34.4367 3.18023C34.3006 3.27948 34.173 3.33903 34.0199 3.39858C34.156 3.44963 34.4793 3.55739 34.7345 3.86082C34.9641 4.13022 35.0662 4.44782 35.0662 4.79946C35.0662 5.63034 34.5813 6.0075 34.2893 6.16631C33.915 6.37332 33.4755 6.41869 32.6702 6.41302L31.8848 6.40451ZM16.0034 5.21348C16.5733 5.19363 17.1149 5.0717 17.5288 4.58961C17.7075 4.38827 17.9627 4.00544 17.9627 3.36172C17.9627 2.8456 17.7925 2.51098 17.6735 2.33516C17.2652 1.72547 16.6328 1.59219 15.9155 1.59219C15.6858 1.59219 15.4476 1.6007 15.2151 1.6007V5.19647L16.0034 5.21348ZM15.2179 6.40451H13.6244V0.40116H14.631H15.4249C15.7056 0.392653 15.9892 0.40116 16.2614 0.40116C16.4315 0.40116 16.6102 0.40116 16.7803 0.418175C17.061 0.443697 17.8209 0.500413 18.4929 1.00235C18.9211 1.31995 19.6016 2.03741 19.5931 3.34754C19.5931 3.54037 19.5846 3.95723 19.4144 4.44215C19.1082 5.3099 18.3993 5.98482 17.5033 6.26272C17.2141 6.35347 16.8455 6.42153 16.1905 6.42153H16.0034L15.2179 6.40451ZM26.9483 0.403996H25.3689V6.41586H29.5654V5.10572H26.9483V0.403996ZM24.4644 2.78889H21.8728V1.64607H24.4644V0.403996H20.336V6.41586H24.4644V5.17945H21.8728V3.99693H24.4644V2.78889ZM39.8922 2.78889H37.3005V1.64607H39.8922V0.403996H35.7637V6.41586H39.8922V5.17945H37.3005V3.99693H39.8922V2.78889ZM49.9014 5.14543V3.17739H51.4382L51.3786 6.09541C51.1405 6.17765 50.9023 6.23437 50.6613 6.28541C50.5195 6.31944 50.2473 6.38183 49.9014 6.4272C49.6547 6.45556 49.4052 6.47541 49.1528 6.48108H49.1216C48.3107 6.48108 47.5933 6.30242 46.961 5.79198C46.5583 5.47154 45.8863 4.75692 45.8863 3.47515C45.8863 3.13769 45.9289 2.34934 46.4988 1.59219C46.6094 1.44473 46.9014 1.09876 47.3438 0.812349C47.7095 0.591158 48.2568 0.335938 49.2379 0.335938C50.1934 0.335938 50.8399 0.565636 51.2 0.704589L50.8087 1.79069C50.6811 1.74816 50.5535 1.69995 50.4259 1.66025C50.1339 1.5695 49.7681 1.50428 49.4534 1.50428C49.3172 1.50428 48.96 1.52129 48.5942 1.67726C47.5791 2.12815 47.494 3.16605 47.494 3.48649C47.494 3.60843 47.494 3.88917 47.6301 4.20962C47.9647 5.02065 48.6821 5.23901 49.1216 5.29005C49.184 5.29572 49.2492 5.29856 49.3144 5.29856C49.5781 5.29856 49.7993 5.21632 49.9014 5.14543ZM42.308 2.97889V1.54398H42.9913C43.1104 1.55249 43.2465 1.55249 43.3571 1.58652C43.8079 1.71129 43.8505 2.09979 43.8505 2.25293C43.859 2.4968 43.7484 2.64143 43.6803 2.71799C43.4847 2.91934 43.255 2.95337 42.9913 2.97038C42.9148 2.97038 42.8297 2.97889 42.7446 2.97889H42.308ZM45.8126 6.40451L44.755 4.49036C44.5934 4.23797 44.4062 3.93455 44.1255 3.77291C44.066 3.73037 44.0404 3.72186 43.9639 3.70485C44.0575 3.68783 44.1425 3.67933 44.2361 3.6538C44.4147 3.61127 44.5593 3.5347 44.6189 3.51201C44.789 3.41843 44.9336 3.29933 45.0527 3.15754C45.2824 2.87113 45.393 2.46561 45.393 2.10263C45.4015 1.62905 45.2228 1.29443 45.1208 1.1413C44.6529 0.449369 43.8079 0.389817 43.048 0.389817C42.5121 0.389817 41.9734 0.372802 41.446 0.389817H40.7797V6.40168H42.3051V4.14156L42.5263 4.15007C42.6454 4.15857 42.756 4.17559 42.8496 4.22663C42.9942 4.3032 43.1047 4.48752 43.2579 4.79095L44.066 6.40168H45.8126V6.40451ZM80.4705 0.406832V1.00802H82.393V6.43854H83.15V1.00235H85.064V0.409668H80.4705V0.406832ZM74.9442 0.630859V6.43003H75.6247V2.6868C75.6247 2.4968 75.6162 2.30681 75.6077 2.11965C75.5992 1.8786 75.5737 1.63756 75.5481 1.38801C75.7806 1.81054 75.8147 1.86159 76.2542 2.46277C76.6596 3.01292 77.0651 3.57157 77.4678 4.12171C78.0377 4.91289 78.6133 5.69557 79.1832 6.48959L79.7701 6.24004V0.406832H79.0896V4.20962C79.0896 4.72573 79.0981 4.94976 79.1662 5.44885C79.0726 5.25886 78.9762 5.06886 78.8656 4.89021C78.7012 4.62364 78.5197 4.36558 78.3297 4.11604C77.9413 3.56589 77.5273 3.02993 77.1303 2.49113C76.6058 1.78502 76.0982 1.07041 75.5793 0.364295L74.9442 0.630859ZM70.6796 0.406832V6.44705H73.9291V5.83736H71.4225V3.65097H73.8015V3.04978H71.431V0.993839H73.8695V0.409668H70.6796V0.406832ZM63.4322 0.418175L62.3632 6.36198L63.0607 6.48392C63.1543 5.89124 63.2507 5.29572 63.3528 4.70304C63.4464 4.14439 63.5513 3.58291 63.6392 3.01575C63.7328 2.41173 63.8008 1.80204 63.8717 1.19234C63.9482 1.48443 64.0191 1.78502 64.1127 2.07711C64.1751 2.2586 64.2431 2.42874 64.3027 2.60173C64.5012 3.11784 64.6826 3.64246 64.8726 4.16708C65.1477 4.93274 65.4142 5.6899 65.6921 6.44705H66.3811C66.761 5.44035 67.1381 4.43364 67.5266 3.42694C67.5947 3.22844 67.674 3.02993 67.7506 2.83426C67.8442 2.59322 67.9292 2.35218 68.0257 2.11114C68.1362 1.81054 68.2411 1.49294 68.3461 1.17249C68.3546 1.82756 68.3971 2.1877 68.5701 3.39291C68.726 4.43364 68.8791 5.47438 69.0436 6.51511L69.7496 6.37048L68.7941 0.406832H68.0512C67.8357 0.956974 67.6117 1.50712 67.4047 2.06009C67.2317 2.49113 67.0758 2.92784 66.9056 3.35888C66.7525 3.77291 66.5796 4.16708 66.4236 4.58111C66.2932 4.93274 66.1741 5.30423 66.0522 5.66721C65.9841 5.42617 65.9246 5.18513 65.8367 4.95259C65.7261 4.60946 65.5872 4.28051 65.4681 3.93738L65.0541 2.72367C64.7875 1.9495 64.504 1.19234 64.229 0.426682L63.4322 0.418175ZM58.2773 0.406832V6.44705H61.5268V5.83736H59.0202V3.65097H61.3992V3.04978H59.0287V0.993839H61.4672V0.409668H58.2773V0.406832ZM57.4607 0.908766C57.3303 0.840707 57.1998 0.764141 57.0637 0.704589C56.4002 0.415339 55.7197 0.38131 55.4702 0.38131C54.0922 0.38131 53.3238 1.09593 52.9807 1.51562C52.5327 2.0686 52.3002 2.76904 52.3002 3.49216C52.3002 4.37693 52.6461 5.24751 53.3067 5.82601C54.0837 6.5066 54.9542 6.56615 55.3228 6.56615C56.3577 6.55765 57.0722 6.1578 57.4097 5.97064L57.1431 5.4687C56.5931 5.73243 56.0827 5.97064 55.4362 5.97064C54.3842 5.97064 53.8086 5.36662 53.5846 5.05752C53.1281 4.44499 53.1026 3.75306 53.1026 3.48082C53.1026 3.14053 53.1451 2.1877 53.9305 1.52129C54.543 1.00235 55.181 0.968317 55.4816 0.968317C56.1365 0.968317 56.4995 1.11294 56.7575 1.23204C56.8964 1.3001 57.024 1.37667 57.163 1.45324L57.4607 0.908766Z" fill="#008238"/>
</svg>
