<svg width="144" height="28" viewBox="0 0 144 28" fill="none" xmlns="http://www.w3.org/2000/svg">
<path fill-rule="evenodd" clip-rule="evenodd" d="M33.5959 14.5654H38.4584C40.5259 14.5654 42.9572 13.986 42.9572 11.2246C42.9572 9.8185 42.163 8.99185 40.6252 8.67782V8.64443C41.9148 8.2139 42.6593 7.40348 42.6593 5.9488C42.6593 3.96331 41.0548 3.0212 38.9052 3.0212H33.5959V14.5654ZM36.6725 9.66955H37.6145C38.6731 9.66955 39.8807 9.78508 39.8807 11.0422C39.8807 12.2173 38.7066 12.3824 37.5821 12.3824H36.6725V9.66955ZM36.6725 5.20426H37.5649C38.5901 5.20426 39.5828 5.30354 39.5828 6.36213C39.5828 7.33766 38.5405 7.58579 37.5325 7.58579H36.6725V5.20426Z" fill="#1A171B"/>
<path d="M53.3732 5.94845H50.397V9.58715C50.397 11.4399 49.768 12.2828 48.5443 12.2828C47.7339 12.2828 47.1717 11.7368 47.1717 10.116V5.94845H44.1945V11.3234C44.1945 13.1094 45.1375 14.7637 47.4856 14.7637C48.842 14.7637 50.0324 14.2187 50.628 12.9777H50.6614V14.5651H53.3732V5.94845Z" fill="#1A171B"/>
<path d="M54.9785 14.5654H62.3876V12.3824H58.3853L62.3218 8.3304V5.9488H55.0616V8.1318H58.9151L54.9785 12.1838V14.5654Z" fill="#1A171B"/>
<path d="M63.7461 14.5654H71.1552V12.3824H67.1529L71.0894 8.3304V5.9488H63.8292V8.1318H67.6826L63.7461 12.1838V14.5654Z" fill="#1A171B"/>
<path fill-rule="evenodd" clip-rule="evenodd" d="M72.9395 14.5652H75.9168V5.94856H72.9395V14.5652ZM75.9168 2.35944H72.9395V4.5425H75.9168V2.35944Z" fill="#1A171B"/>
<path d="M93.2705 3.0209H90.194V9.66926C90.194 11.1908 89.7807 12.4814 88.2095 12.4814C86.6383 12.4814 86.2251 11.1908 86.2251 9.66926V3.0209H83.1486V10.1828C83.1486 13.3414 85.1999 14.7637 88.2095 14.7637C91.2192 14.7637 93.2705 13.3414 93.2705 10.1828V3.0209Z" fill="#1A171B"/>
<path d="M94.8068 14.5654H97.784V10.9267C97.784 9.07393 98.412 8.2311 99.6357 8.2311C100.446 8.2311 101.008 8.77608 101.008 10.3979V14.5654H103.986V9.19044C103.986 7.4035 103.043 5.75027 100.694 5.75027C99.338 5.75027 98.1476 6.29628 97.552 7.5362H97.5186V5.9488H94.8068V14.5654Z" fill="#1A171B"/>
<path fill-rule="evenodd" clip-rule="evenodd" d="M105.816 14.5652H108.794V5.94856H105.816V14.5652ZM108.794 2.35944H105.816V4.5425H108.794V2.35944Z" fill="#1A171B"/>
<path d="M117.708 6.23008C117.03 5.89883 116.237 5.74992 115.343 5.74992C112.499 5.74992 110.332 7.40417 110.332 10.2659C110.332 13.1104 112.499 14.7637 115.343 14.7637C116.137 14.7637 117.03 14.632 117.774 14.3838L117.708 12.1673C117.212 12.4317 116.534 12.5807 115.856 12.5807C114.566 12.5807 113.408 11.6882 113.408 10.3156C113.408 8.82644 114.401 7.93397 115.691 7.93397C116.402 7.93397 116.948 8.08189 117.493 8.41314L117.708 6.23008Z" fill="#1A171B"/>
<path fill-rule="evenodd" clip-rule="evenodd" d="M127.814 11.1256V10.5796C127.814 8.01564 126.656 5.75053 123.464 5.75053C120.784 5.75053 118.85 7.40374 118.85 10.2493C118.85 13.0938 121.016 14.7643 123.861 14.7643C124.969 14.7643 126.06 14.5992 127.019 14.2183V12.1183C126.127 12.5975 125.2 12.7788 124.391 12.7788C122.935 12.7788 122.025 12.3169 121.86 11.1256H127.814ZM121.827 9.43888C121.893 8.44613 122.406 7.63576 123.481 7.63576C124.671 7.63576 125.134 8.44613 125.134 9.43888H121.827Z" fill="#1A171B"/>
<path d="M129.313 14.5654H132.291V10.9267C132.291 9.07393 132.919 8.2311 133.977 8.2311C134.821 8.2311 135.168 8.95845 135.168 9.93499V14.5654H138.145V10.9267C138.145 9.07393 138.774 8.2311 139.832 8.2311C140.675 8.2311 141.023 8.95845 141.023 9.93499V14.5654H143.999V9.48722C143.999 7.15629 143.438 5.75027 140.957 5.75027C139.733 5.75027 138.592 6.24559 137.897 7.40346C137.434 6.27902 136.425 5.75027 135.201 5.75027C133.845 5.75027 132.654 6.29628 132.059 7.5362H132.026V5.9488H129.313V14.5654Z" fill="#1A171B"/>
<path d="M4.19177 9.57051H0V4.71012C0 4.71012 2.64697 4.87626 4.9394 3.6495C5.64243 3.27267 6.68687 2.52198 6.92189 0.744154H25.8337V17.089C25.8337 24.8841 24.7933 27.1279 15.0593 27.1279C5.13085 27.1279 4.18979 24.8862 4.18979 17.0951L4.19177 9.57051Z" fill="#0071B9"/>
<path d="M11.9042 0.743551H18.117V20.9146H11.9042V0.743551Z" fill="#1A171B"/>
<path d="M16.9835 1.25245H13.0449V2.76794H16.9835V1.25245Z" fill="white"/>
<path d="M13.0449 11.4456V13.2072H15.7394V13.6458H13.0449V15.4763H15.546C16.7697 15.4763 17.0391 15.3112 17.0391 13.4533C17.0391 11.6107 16.7697 11.4456 15.546 11.4456H13.0449Z" fill="white"/>
<path fill-rule="evenodd" clip-rule="evenodd" d="M16.9753 19.8978V16.8963C16.9753 16.0241 16.4688 15.7637 15.9512 15.7637C15.159 15.7637 15.0871 16.2571 15.0375 16.7646H15.0264C14.9929 16.2703 14.7012 15.7901 14.0296 15.7901C13.4299 15.7901 13.0449 16.0504 13.0449 16.8436V19.8978H16.9753ZM15.4892 18.3064V17.6591C15.4892 17.417 15.6097 17.3552 15.7749 17.3552C15.94 17.3552 16.0616 17.417 16.0616 17.6631V18.3064H15.4892ZM14.0741 18.3064V17.6763C14.0741 17.4565 14.1622 17.3815 14.3607 17.3815C14.5258 17.3815 14.6414 17.4565 14.6414 17.6986V18.3064H14.0741Z" fill="white"/>
<path d="M16.9763 6.8842V3.03077H15.6767V4.50162L14.2453 3.03077H13.0449V6.89941H14.46V5.35962L16.095 6.8842H16.9763Z" fill="white"/>
<path d="M16.9763 11.0945V7.24099H15.6767V8.7119L14.2453 7.24099H13.0449V11.1086H14.46V9.5699L16.095 11.0945H16.9763Z" fill="white"/>
</svg>
