<svg width="144" height="47" viewBox="0 0 144 47" fill="none" xmlns="http://www.w3.org/2000/svg">
<path d="M0 4.50248V8.20536H2.26287H4.52574V6.14821V4.09105H9.2572C11.8492 4.09105 13.9887 4.17334 13.9887 4.29677C13.9887 4.4202 10.9441 9.02822 7.20004 14.5414C0.864005 23.922 0.411431 24.7037 0.411431 26.4729V28.3655H10.0801H19.7487V24.4569V20.5483H17.6915H15.6344V22.6054V24.6626H10.6561H5.71889L12.7132 14.2945C18.7613 5.36649 19.7487 3.67962 19.7487 2.36304V0.799604H9.87434H0V4.50248Z" fill="#008687"/>
<path d="M25.5082 2.40418C25.5082 4.04991 25.5082 4.04991 27.2774 4.17334L29.0054 4.29677L29.1288 14.4591L29.2111 24.6626H27.154H25.0557L25.1791 26.3906L25.3025 28.1598L35.3003 28.2832L45.2569 28.3655V24.2512V20.1369H43.1998H41.1426V22.3997V24.6626H37.4397H33.7369V14.3768V4.09105H35.3826H37.0283V2.44533V0.799604H31.2683H25.5082V2.40418Z" fill="#008687"/>
<path d="M0.493717 37.4171C0.576003 38.7748 0.781719 39.3097 1.35772 39.3919C1.85144 39.5154 2.05715 39.2685 2.05715 38.4868C2.05715 37.5816 2.22173 37.4171 3.33259 37.4171C4.73146 37.4171 4.81374 37.1702 1.97487 41.408C0.905148 43.0537 0 44.7405 0 45.2343C0 46.016 0.246859 46.0571 4.11431 46.0571H8.22862V44.2057C8.22862 42.56 8.14633 42.3542 7.28233 42.3542C6.54175 42.3542 6.33604 42.56 6.33604 43.2594C6.37718 44.0411 6.13032 44.2468 4.97831 44.3291C3.2503 44.4937 3.33259 44.3291 6.17146 40.0914C7.32347 38.3634 8.22862 36.6765 8.14633 36.3062C8.06405 35.8125 7.28233 35.6891 4.1966 35.6068L0.370288 35.5656L0.493717 37.4171Z" fill="black"/>
<path d="M78.2527 36.1416C78.1293 36.4708 78.335 36.9234 78.7053 37.2114C79.6927 37.9108 79.7338 44.4114 78.7464 44.4114C78.3761 44.4114 78.1704 44.6994 78.2527 45.1108C78.335 45.6868 78.8698 45.8926 80.5567 45.9748C82.4904 46.0983 82.6961 46.016 82.6961 45.2754C82.6961 44.7817 82.5316 44.4114 82.3258 44.4114C82.1201 44.4114 81.8733 44.0411 81.7498 43.5885C81.4207 42.3954 81.8321 42.56 83.3956 44.4114C84.4653 45.6457 85.1236 46.0571 86.0287 46.0571C86.9339 46.0571 87.2219 45.8514 87.2219 45.2343C87.2219 44.7817 86.975 44.4114 86.6459 44.4114C86.3167 44.4114 85.6584 43.8765 85.2059 43.2183L84.383 42.0662L85.2882 41.1611C85.823 40.7085 86.4813 40.2971 86.7282 40.2971C87.0162 40.2971 87.2219 39.9268 87.2219 39.4742C87.2219 38.7337 86.9339 38.6514 84.7944 38.6514C82.8196 38.6514 82.367 38.7748 82.4493 39.3097C82.4904 39.6388 82.7784 40.0914 83.1076 40.2971C83.519 40.544 83.4367 40.7085 82.7784 41.0788C81.9556 41.5314 81.9144 41.4491 81.791 38.6102L81.6676 35.6479L80.063 35.6068C79.0755 35.5656 78.4173 35.7714 78.2527 36.1416Z" fill="black"/>
<path d="M91.7478 36.4708C91.7478 37.0468 91.9947 37.4171 92.3649 37.4171C92.8587 37.4171 92.9821 38.0754 92.9821 40.7085C92.9821 43.3417 92.8587 44 92.3649 44C91.9947 44 91.7478 44.3703 91.7478 45.0286V46.0571H96.0678H100.388V43.5885C100.388 41.408 100.306 41.12 99.6061 41.12C98.9478 41.12 98.7833 41.4491 98.6598 42.6423C98.5364 44.0823 98.413 44.2057 97.2198 44.3291L95.8621 44.4525V40.9554C95.8621 38.8571 96.0267 37.4171 96.2735 37.4171C96.5204 37.4171 96.685 37.0056 96.685 36.4708C96.685 35.6479 96.4793 35.5656 94.2164 35.5656C91.9124 35.5245 91.7478 35.6068 91.7478 36.4708Z" fill="black"/>
<path d="M102.859 36.142C102.859 37.2528 103.641 37.6231 104.381 36.8825C105.122 36.142 104.752 35.3602 103.641 35.3602C103.147 35.3602 102.859 35.6482 102.859 36.142Z" fill="black"/>
<path d="M105.903 35.8126C105.574 36.3886 106.767 37.5818 107.343 37.2526C107.59 37.0881 107.796 36.5943 107.796 36.1418C107.796 35.2778 106.397 35.0309 105.903 35.8126Z" fill="black"/>
<path d="M109.85 36.4708C109.85 37.0468 110.096 37.4171 110.467 37.4171C110.96 37.4171 111.084 38.0754 111.084 40.7085C111.084 43.2594 110.96 44.0823 110.467 44.2468C110.138 44.4114 109.85 44.8228 109.85 45.2754C109.85 45.9337 110.22 46.016 113.182 45.9748C115.898 45.9748 116.679 45.8103 117.297 45.1931C118.284 44.2057 118.366 40.8731 117.42 39.5154C116.844 38.6925 116.474 38.5691 114.951 38.7748L113.141 38.9805V37.2525V35.5656H111.495C110.055 35.5245 109.85 35.6479 109.85 36.4708ZM115.774 41.6548C115.898 42.1485 115.692 42.9714 115.363 43.5063C114.746 44.4525 114.704 44.4525 113.923 43.7531C112.976 42.8891 112.935 41.8194 113.758 40.9554C114.54 40.1737 115.445 40.5028 115.774 41.6548Z" fill="black"/>
<path d="M135.031 36.1416C134.907 36.4708 135.113 36.9234 135.483 37.2114C136.471 37.9108 136.512 44.4114 135.525 44.4114C135.154 44.4114 134.949 44.6994 135.031 45.1108C135.113 45.6868 135.648 45.8926 137.335 45.9748C139.269 46.0983 139.474 46.016 139.474 45.2754C139.474 44.7817 139.31 44.4114 139.063 44.4114C138.857 44.4114 138.651 44 138.651 43.5063C138.651 42.7657 138.857 42.848 140.133 44.3291C141.243 45.6457 141.902 46.0571 142.807 46.0571C143.712 46.0571 144 45.8514 144 45.2343C144 44.7817 143.753 44.4114 143.465 44.4114C143.177 44.4114 142.519 43.8765 142.025 43.2183L141.161 42.0251L142.107 41.1611C142.601 40.7085 143.259 40.2971 143.506 40.2971C143.794 40.2971 144 39.9268 144 39.4742C144 38.7337 143.712 38.6514 141.737 38.6514C139.762 38.6514 139.474 38.7337 139.474 39.4742C139.474 39.9268 139.68 40.2971 139.927 40.2971C140.256 40.2971 140.256 40.5028 139.886 40.9142C138.939 42.0662 138.651 41.5314 138.651 38.5279V35.5245L136.965 35.5656C135.895 35.5656 135.154 35.7714 135.031 36.1416Z" fill="black"/>
<path d="M48.877 36.7591C48.2187 37.2528 47.725 37.8699 47.725 38.1579C47.725 38.4459 47.5604 38.6516 47.3135 38.6516C47.1078 38.6516 46.9021 39.0219 46.9021 39.4745C46.9021 39.9271 47.1078 40.2974 47.3135 40.2974C47.5604 40.2974 47.725 41.3671 47.725 42.7248C47.725 45.4403 48.2598 46.1808 50.0701 45.9751C50.893 45.8928 51.2633 45.6048 51.3456 44.9054C51.4278 44.2883 51.2633 44.0003 50.8518 44.0003C50.3581 44.0003 50.1935 43.5477 50.1935 42.1488C50.1935 40.7911 50.3581 40.2974 50.8107 40.2974C51.1398 40.2974 51.4278 39.9271 51.4278 39.4745C51.4278 39.0219 51.181 38.6516 50.8518 38.6516C50.4404 38.6516 50.1935 38.1168 50.1113 37.2528L49.9878 35.8539L48.877 36.7591Z" fill="black"/>
<path d="M9.91709 39.7211C7.85993 42.3542 9.46451 46.0571 12.6325 46.0571C14.1548 46.0571 16.0474 45.152 16.0474 44.4114C16.0474 43.7531 14.484 43.5474 13.62 44.0823C13.0028 44.4525 12.5502 44.4937 12.0565 44.1645C10.4931 43.1771 10.9868 42.7657 13.7434 42.7657C15.2245 42.7657 16.4588 42.6011 16.4588 42.3954C16.4588 41.4491 15.4714 39.3919 14.8131 39.0628C14.4017 38.8159 13.2908 38.6514 12.3857 38.6514C11.1102 38.6514 10.5754 38.8982 9.91709 39.7211ZM13.7434 40.9142C13.908 41.408 13.62 41.5314 12.468 41.5314C11.2337 41.5314 11.0691 41.4491 11.5217 40.9142C11.8097 40.5851 12.3445 40.2971 12.756 40.2971C13.1674 40.2971 13.5788 40.5851 13.7434 40.9142Z" fill="black"/>
<path d="M16.8701 39.5154C16.8701 39.9268 17.1581 40.2971 17.4873 40.2971C18.3513 40.2971 18.3513 43.9177 17.4873 44.2468C17.1581 44.4114 16.8701 44.864 16.8701 45.2754C16.8701 45.9337 17.1993 46.0571 19.133 46.0571C21.0667 46.0571 21.3959 45.9337 21.3959 45.2754C21.3959 44.864 21.1079 44.3703 20.7376 44.2468C20.285 44.0823 20.1616 43.5474 20.2439 42.4777C20.3261 41.2434 20.5319 40.9142 21.1901 40.9142C21.9307 40.9142 22.013 41.2434 22.1364 43.4651L22.2599 46.0571H23.8644C25.2222 46.0571 25.5102 45.8926 25.5102 45.2754C25.5102 44.864 25.2222 44.3703 24.8519 44.2468C23.9467 43.9177 24.2347 40.9554 25.181 40.7908C25.757 40.6674 25.8805 41.0788 26.0039 43.2594L26.1273 45.8514L27.8965 45.9748C29.4188 46.0983 29.6245 46.016 29.6245 45.2754C29.6245 44.7817 29.3365 44.4114 29.0073 44.4114C28.5136 44.4114 28.3902 43.8765 28.3902 42.0251C28.3902 40.7085 28.1845 39.4331 27.8965 39.1451C27.2793 38.5279 25.7159 38.4868 24.6873 39.0628C24.2347 39.3097 23.8233 39.3097 23.6999 39.1039C23.5764 38.8982 21.9719 38.7337 20.1616 38.7337C17.1581 38.6925 16.8701 38.7748 16.8701 39.5154Z" fill="black"/>
<path d="M31.0626 39.6797C29.6226 41.0786 29.6226 43.6295 31.0626 45.0283C32.338 46.3449 34.8478 46.4272 36.2466 45.2341C37.1106 44.5346 37.1518 44.37 36.6169 43.9998C35.8352 43.4649 35.0946 43.4649 34.7655 43.9998C34.3129 44.6992 32.9552 44.4523 32.5026 43.5883C32.0912 42.8066 32.1735 42.7655 34.7655 42.7655C36.2466 42.7655 37.4398 42.6009 37.4398 42.3952C37.4398 41.4489 36.4524 39.3917 35.7941 39.0626C34.3541 38.2809 32.1323 38.5689 31.0626 39.6797ZM34.7243 40.914C34.8889 41.3666 34.6421 41.5312 33.7369 41.5312C32.5438 41.5312 32.1735 41.1609 32.7906 40.5849C33.2843 40.0912 34.4775 40.2969 34.7243 40.914Z" fill="black"/>
<path d="M37.8498 39.5154C37.8498 39.9268 38.1378 40.2971 38.4669 40.2971C38.9195 40.2971 39.0841 40.7908 39.0841 42.3542C39.0841 43.9177 38.9195 44.4114 38.4669 44.4114C38.1378 44.4114 37.8498 44.7817 37.8498 45.2343C37.8498 45.9748 38.1378 46.0571 40.1127 46.0571C42.0464 46.0571 42.3755 45.9337 42.3755 45.2754C42.3755 44.864 42.0875 44.3703 41.7172 44.2468C41.2647 44.0823 41.1412 43.5474 41.2235 42.4777C41.3058 41.2022 41.5115 40.8731 42.2932 40.7908C43.1573 40.6674 43.1984 40.7908 43.1984 43.3417V46.0571H44.8441C46.2018 46.0571 46.4898 45.9337 46.4898 45.2343C46.4898 44.7817 46.3253 44.4114 46.0784 44.4114C45.8727 44.4114 45.667 43.5885 45.667 42.6011C45.667 41.5725 45.5024 40.2971 45.2967 39.7622C44.9264 38.7748 44.7207 38.7337 41.3881 38.7337C38.1789 38.6925 37.8498 38.7748 37.8498 39.5154Z" fill="black"/>
<path d="M51.8391 39.4742C51.8391 39.9268 52.0036 40.2971 52.2093 40.2971C52.4562 40.2971 53.0322 41.5725 53.5259 43.1771C54.3899 45.8103 54.5545 46.0571 55.5831 46.0571C56.5705 46.0571 56.7351 45.8514 57.1877 43.9588C57.7637 41.6137 58.0105 41.6548 58.6277 44.1234C59.0391 45.6457 59.2037 45.8514 60.2322 45.8514C61.3431 45.8514 61.4665 45.6457 62.2483 43.0537C62.742 41.408 63.2768 40.2971 63.606 40.2971C63.9351 40.2971 64.182 39.9268 64.182 39.4742C64.182 38.7748 63.894 38.6514 62.3305 38.6514C60.7671 38.6514 60.4791 38.7748 60.4791 39.4331C60.4791 39.8857 60.6437 40.2971 60.8494 40.3794C61.3431 40.544 60.9317 42.7657 60.438 42.7657C60.2322 42.7657 60.0677 42.5188 60.0677 42.2308C60.0677 41.984 59.862 41.0377 59.6151 40.1737C59.2448 38.8159 59.0391 38.6102 58.1339 38.7337C57.2288 38.8159 56.9408 39.2274 56.3648 40.9142C55.7065 42.8068 55.6242 42.8891 55.3774 41.9428C55.2128 41.3668 55.2951 40.3794 55.5008 39.7622L55.9534 38.6514H53.8962C52.1271 38.6514 51.8391 38.7748 51.8391 39.4742Z" fill="black"/>
<path d="M65.4164 39.4742C62.9478 41.9428 64.4701 46.0571 67.8438 46.0571C68.8313 46.0571 69.8187 45.728 70.5593 45.152L71.7113 44.2468L70.7238 43.9177C70.1067 43.6708 69.4484 43.712 68.8313 44.0411C67.7615 44.6171 66.6507 44.288 66.6507 43.3828C66.6507 42.8891 67.1855 42.7657 69.1604 42.7657H71.7113L71.4233 41.408C71.2998 40.7085 70.765 39.7622 70.3124 39.3508C69.1193 38.3634 66.445 38.4457 65.4164 39.4742ZM69.037 40.9965C69.1193 41.3668 68.749 41.5314 67.9261 41.5314C66.6918 41.5314 66.3215 41.1611 66.9387 40.544C67.3912 40.1325 68.8313 40.4205 69.037 40.9965Z" fill="black"/>
<path d="M72.2902 39.4742C72.4137 39.9268 72.6605 40.2971 72.8662 40.2971C73.072 40.2971 73.2365 41.2022 73.2365 42.3542C73.2365 43.8354 73.072 44.4114 72.6605 44.4114C72.2902 44.4114 72.1668 44.6994 72.2902 45.2343C72.496 45.9337 72.8662 46.0571 74.7177 46.0571C76.6514 46.0571 76.9394 45.9748 76.9394 45.2343C76.9394 44.7817 76.6514 44.4114 76.3223 44.4114C75.9108 44.4114 75.7051 44 75.7051 43.2183C75.7051 41.9017 76.6103 40.7085 77.5977 40.7085C77.9268 40.7085 78.1737 40.2971 78.1737 39.6799C78.1737 38.4457 77.1863 38.3222 76.0343 39.3508C75.3348 39.9679 75.2937 39.9679 75.2937 39.3508C75.2937 38.8159 74.9234 38.6514 73.6891 38.6514C72.2902 38.6514 72.1257 38.7748 72.2902 39.4742Z" fill="black"/>
<path d="M101.211 39.4744C101.211 39.927 101.417 40.2973 101.622 40.2973C101.869 40.2973 102.034 41.2436 102.034 42.3956C102.034 45.7282 102.322 45.975 106.148 45.975C109.152 46.0162 109.44 45.9339 109.44 45.1933C109.44 44.7819 109.275 44.4116 109.028 44.4116C108.781 44.4116 108.617 43.1773 108.617 41.5316V38.6516H106.971C105.613 38.6516 105.325 38.775 105.325 39.4744C105.325 39.927 105.531 40.2973 105.778 40.2973C106.025 40.2973 106.148 40.9967 106.066 42.0253C105.984 43.3007 105.737 43.8356 105.243 43.9179C104.585 44.0413 104.502 43.7122 104.502 41.367V38.6516H102.857C101.499 38.6516 101.211 38.775 101.211 39.4744Z" fill="black"/>
<path d="M120.138 39.4743C118.574 41.0377 118.574 43.6709 120.138 45.2343C121.331 46.4275 123.882 46.3452 125.322 45.0698L126.474 44.1235L125.568 43.7943C124.992 43.6298 124.375 43.712 124.046 44C123.264 44.6583 121.372 44.1646 121.372 43.3829C121.372 42.8892 121.948 42.7657 123.84 42.7657C126.144 42.7657 126.309 42.7246 126.309 41.7783C126.309 41.2435 125.939 40.3383 125.445 39.7212C124.746 38.8572 124.252 38.6514 122.771 38.6514C121.536 38.6514 120.714 38.8983 120.138 39.4743ZM123.758 40.9966C123.84 41.3669 123.47 41.5315 122.647 41.5315C121.413 41.5315 121.043 41.1612 121.66 40.544C122.112 40.1326 123.552 40.4206 123.758 40.9966Z" fill="black"/>
<path d="M128.16 39.6801C127.008 40.7909 126.762 43.3007 127.667 44.4527C128.983 46.1807 131.74 46.551 133.468 45.1932C134.785 44.1647 134.826 43.8355 133.55 43.2595C132.727 42.8892 132.522 42.9304 132.316 43.4241C132.151 43.8355 131.658 44.0001 130.958 43.9178C129.93 43.7944 129.806 43.6298 129.806 42.3544C129.806 41.1612 129.971 40.8732 130.752 40.7909C131.287 40.7086 132.069 40.9555 132.481 41.3258C133.633 42.3544 134.538 41.8195 134.538 40.0915V38.6515H131.863C129.518 38.6515 129.024 38.7749 128.16 39.6801Z" fill="black"/>
</svg>
