<svg width="85" height="14" viewBox="0 0 85 14" fill="none" xmlns="http://www.w3.org/2000/svg">
<g clip-path="url(#clip0_35_903)">
<path d="M0.830627 7.00516V13.0211H8.44463H16.0586V7.00516V0.989203H14.0513H12.044V6.38282V11.7903L11.241 11.7488L10.452 11.7073L10.4104 6.34133L10.3827 0.989203H8.44463H6.50652V6.38282V11.7764H5.6759H4.84528V6.38282V0.989203H2.83796H0.830627V7.00516Z" fill="#0073AB"/>
<path d="M17.9968 2.64877V4.30835H19.9349H21.873V2.64877V0.9892H19.9349H17.9968V2.64877Z" fill="#0073AB"/>
<path d="M23.8111 3.13282V5.27644H23.1189H22.4267V5.96793V6.65942H23.1189H23.8111V9.84027V13.0211H25.8184H27.8258V9.84027V6.65942H28.5179H29.2101V9.84027V13.0211H31.2174H33.2248V9.84027V6.65942H33.9862H34.7476V5.96793V5.27644H34.0692C33.5847 5.27644 33.3632 5.22112 33.3078 5.05516C33.2663 4.93069 33.2248 3.97644 33.2248 2.91154V0.989203H31.259H29.2793V3.09133V5.20729L28.5595 5.24878L27.8258 5.29027V3.14665V0.989203H25.8184H23.8111V3.13282Z" fill="#0073AB"/>
<path d="M46.93 7.00516V13.0211H48.8681H50.7924L50.8339 11.5967L50.8754 10.186L51.5399 10.1445L52.1906 10.103V11.5552V13.0211H54.1287H56.0668V10.7392V8.45729H54.8209C54.1425 8.45729 53.5749 8.40197 53.5749 8.33282C53.5749 8.26367 54.2394 7.54452 55.0701 6.74239L56.5513 5.27644H55.3054H54.0595L52.509 6.72856C51.6645 7.53069 50.9308 8.18069 50.8893 8.18069C50.8477 8.18069 50.8062 6.56261 50.8062 4.58495V0.989203H48.8681H46.93V7.00516Z" fill="#0073AB"/>
<path d="M57.728 2.64877V4.30835H59.6661H61.6042V2.64877V0.9892H59.6661H57.728V2.64877Z" fill="#0073AB"/>
<path d="M80.2932 3.13282V5.27644H77.5244H74.7557V9.14878V13.0211H79.4625H84.1694V7.00516V0.989203H82.2313H80.2932V3.13282ZM80.2932 9.21793V11.7764H79.5318H78.7704V9.21793V6.65942H79.5318H80.2932V9.21793Z" fill="#0073AB"/>
<path d="M17.9968 9.14878V13.0211H19.9349H21.873V9.14878V5.27644H19.9349H17.9968V9.14878Z" fill="#0073AB"/>
<path d="M35.5782 8.08388C35.5782 9.63282 35.5367 11.3754 35.4951 11.9562L35.3982 13.0211H40.202H44.9919V12.3988V11.7764H42.2924H39.5928V11.2232V10.6701H42.2924H44.9919V7.97325V5.27644H40.285H35.5782V8.08388ZM41.088 7.93176L41.0464 9.21793L40.3266 9.25942L39.5928 9.30091V7.98708V6.65942H40.3542H41.1295L41.088 7.93176Z" fill="#0073AB"/>
<path d="M57.728 9.14878V13.0211H59.6661H61.6042V9.14878V5.27644H59.6661H57.728V9.14878Z" fill="#0073AB"/>
<path d="M63.2655 9.14878V13.0211H65.2036H67.1417V9.84027V6.65942H68.1107H69.0798V9.84027V13.0211H71.0871H73.0945V9.14878V5.27644H68.18H63.2655V9.14878Z" fill="#0073AB"/>
</g>
<defs>
<clipPath id="clip0_35_903">
<rect width="85" height="13" fill="white" transform="translate(0 0.436035)"/>
</clipPath>
</defs>
</svg>
