<svg width="84" height="48" viewBox="0 0 84 48" fill="none" xmlns="http://www.w3.org/2000/svg">
<path fill-rule="evenodd" clip-rule="evenodd" d="M7.74152 31.0234H11.2835V6.78619H7.74152V31.0234Z" fill="#0A0A0A"/>
<path fill-rule="evenodd" clip-rule="evenodd" d="M71.2733 37.9323H73.6532V30.5059C73.6532 28.0724 74.3533 27.1214 75.0393 27.1214C75.7113 27.1214 76.2853 27.8906 76.2853 29.9884V37.9323H78.6373V30.5059C78.6373 28.0864 79.3232 27.1633 80.0232 27.1633C80.7232 27.1633 81.2693 27.9465 81.2693 29.9884V37.9463H83.6213V28.9116C83.6213 26.3662 83.1312 25.0095 82.4032 24.1704C81.9972 23.6949 81.4373 23.3872 80.8773 23.3872C79.8833 23.3872 78.9453 24.1984 78.3293 25.583C77.7693 24.1844 76.8733 23.4012 76.0053 23.4012C75.2773 23.4012 74.2832 24.1005 73.6532 25.4571V23.583H71.2733V37.9323Z" fill="#0A0A0A"/>
<path fill-rule="evenodd" clip-rule="evenodd" d="M69.606 30.7574C69.606 26.5337 67.856 23.4009 65.406 23.4009C62.914 23.4009 61.192 26.4918 61.192 30.7854C61.192 35.023 62.984 38.1558 65.378 38.1558C66.932 38.1558 68.43 36.7153 69.284 34.4217L67.716 32.6595C67.142 34.1979 66.344 34.9251 65.546 34.9251C64.524 34.9251 63.642 33.5825 63.53 31.6385H69.578C69.606 31.3308 69.606 31.0371 69.606 30.7574ZM63.67 28.7994C63.978 27.261 64.692 26.4358 65.392 26.4358C66.092 26.4358 66.792 27.261 67.072 28.7994H63.67Z" fill="#0A0A0A"/>
<path fill-rule="evenodd" clip-rule="evenodd" d="M59.2773 36.8415V30.9535C58.1993 32.6598 56.7433 33.5829 55.5253 33.5829C53.1453 33.5829 51.2693 30.6459 51.2693 25.8488C51.2693 21.1356 53.1593 18.1706 55.5113 18.1706C56.7853 18.1706 58.2133 19.1077 59.2633 20.772V14.898C58.1433 13.947 56.9113 13.4435 55.6233 13.4435C51.5353 13.4435 48.4833 18.4364 48.4833 25.9327C48.4833 30.506 49.6593 34.1143 51.4793 36.2401C52.5853 37.5408 54.0273 38.324 55.5533 38.324C56.8693 38.338 58.1153 37.8485 59.2773 36.8415Z" fill="#0A0A0A"/>
<path fill-rule="evenodd" clip-rule="evenodd" d="M41.0749 31.051H43.9029V25.205C43.9029 23.0233 44.1689 22.338 44.4629 21.8345C44.8409 21.1911 45.4009 20.7716 46.0729 20.7716C46.4789 20.7716 46.8569 20.9254 47.2069 21.2051V16.5759C46.0449 16.7157 44.8269 17.5688 43.8889 19.0933V16.6878H41.0609V31.051H41.0749Z" fill="#0A0A0A"/>
<path fill-rule="evenodd" clip-rule="evenodd" d="M40.0962 23.8624C40.0962 19.6247 37.9822 16.4919 35.0282 16.4919C32.0182 16.4919 29.9182 19.5828 29.9182 23.8904C29.9182 28.128 32.0742 31.2748 34.9722 31.2748C36.8482 31.2748 38.6682 29.8343 39.7042 27.5266L37.8002 25.7505C37.1142 27.3029 36.1482 28.0161 35.1822 28.0161C33.9502 28.0161 32.8862 26.6735 32.7462 24.7295H40.0542C40.0822 24.4358 40.0962 24.1421 40.0962 23.8624ZM32.9002 21.8904C33.2642 20.338 34.1322 19.5128 34.9862 19.5128C35.8402 19.5128 36.6802 20.338 37.0162 21.8904H32.9002Z" fill="#0A0A0A"/>
<path fill-rule="evenodd" clip-rule="evenodd" d="M25.0026 31.0508H27.8726V19.8623H29.6226V16.212H27.8866V12.3939H25.0026V16.212H23.9666V19.8623H25.0026V31.0508Z" fill="#0A0A0A"/>
<path fill-rule="evenodd" clip-rule="evenodd" d="M13.3716 31.0511H16.2556V24.3101C16.2556 21.2752 17.2776 20.2122 18.2716 20.2122C19.1956 20.2122 20.0216 21.0933 20.0216 23.6527V31.0511H22.8916V23.6527C22.8916 20.3241 22.5276 19.2053 22.1496 18.4501C21.5756 17.2473 20.6376 16.506 19.5176 16.506C18.7616 16.506 18.2436 16.7018 17.4316 17.3452C16.9976 17.6808 16.6056 18.1144 16.2416 18.6039V16.6879H13.3716V31.0511Z" fill="#0A0A0A"/>
<path fill-rule="evenodd" clip-rule="evenodd" d="M80.248 20.506H83.664V6.80003H71.218C71.988 7.40141 72.73 8.08671 73.332 8.71607C73.374 8.75802 73.416 8.79998 73.458 8.84194L75.236 7.30351C76.44 8.56222 77.434 9.94681 78.218 11.4852L76.174 12.9397C76.79 14.3103 77.224 15.7928 77.406 17.3452L79.94 16.4641C80.15 17.583 80.262 18.7298 80.262 19.8906C80.262 20.1144 80.262 20.3102 80.248 20.506ZM65.492 1.24771C66.878 1.48547 68.222 1.87707 69.538 2.4365C69.944 2.60432 70.336 2.78614 70.728 2.99592L69.258 5.54132C67.97 4.89798 66.57 4.43645 65.1 4.17072L65.492 1.24771ZM56.882 1.8491C58.66 1.27569 60.508 0.995972 62.426 0.995972V3.93296C60.83 3.93296 59.29 4.17072 57.834 4.63225L56.882 1.8491ZM49.308 6.5343C49.378 6.46437 49.434 6.40843 49.504 6.3385C50.764 5.07979 52.164 4.03086 53.69 3.20571L55.048 5.80705C53.662 6.56227 52.416 7.52728 51.338 8.66012L49.308 6.5343ZM50.204 11.1356L46.27 9.02375L46.466 14.0166L50.204 11.1356ZM17.36 47.89C18.76 47.9459 20.16 47.848 21.56 47.5683C21.994 47.4844 22.414 47.3865 22.848 47.2746L21.938 44.4775C20.538 44.8411 19.082 45.0089 17.584 44.953L17.36 47.89ZM7.406 45.1208C8.918 46.2257 10.584 47.0648 12.404 47.6662L13.314 44.883C11.802 44.3796 10.402 43.6663 9.17 42.7852L7.406 45.1208ZM1.624 38.086C1.666 38.1699 1.708 38.2538 1.75 38.3377C2.548 39.9321 3.528 41.3586 4.718 42.6453L6.832 40.6174C5.768 39.4566 4.886 38.1559 4.228 36.7434L1.624 38.086ZM4.41 33.0791L0 33.8344L1.778 29.1771L4.41 33.0791ZM27.062 44.897C28.196 44.0579 29.218 43.0929 30.128 42.002C30.408 41.6663 30.688 41.3167 30.94 40.967L28.476 39.3727C27.622 40.5335 26.586 41.5824 25.396 42.4775L27.062 44.897ZM83.986 20.7298L84 6.47836H62.104V20.8277C69.356 20.7997 76.748 20.7717 83.986 20.7298Z" fill="#009FE3"/>
</svg>
