<svg width="143" height="40" viewBox="0 0 143 40" fill="none" xmlns="http://www.w3.org/2000/svg">
<path d="M51.1812 0.562904L65.5153 0.560059L65.4261 0.676616L32.8398 39.4032L18.76 39.4278L51.1812 0.562817V0.562904ZM85.1112 31.716V24.1018L93.6119 24.1152L102.113 24.1287L102.453 24.2428C103.187 24.4887 103.764 24.9633 104.094 25.5925C104.444 26.2606 104.423 25.8012 104.423 32.9193V39.3303H102.502H100.58V33.9125C100.58 28.0829 100.589 28.3015 100.335 27.9443C100.279 27.8659 100.131 27.7415 100.006 27.6678L99.7777 27.5338L98.1846 27.5192L96.5914 27.5046V33.4175V39.3303H94.7192H92.847L92.8343 33.8174L92.8215 28.3046L92.6743 28.0664C92.5831 27.919 92.4365 27.7723 92.2891 27.6811L92.0511 27.5339L90.5027 27.5192L88.9542 27.5046V33.4175V39.3304H87.0328H85.1113V31.7161L85.1112 31.716ZM51.7591 38.9423C50.6277 38.6456 49.7685 37.8137 49.4218 36.6791C49.3379 36.4045 49.3327 36.1026 49.3327 31.5714V26.7555L49.47 26.3668C49.6625 25.8222 49.9001 25.4499 50.3152 25.0425C50.577 24.7856 50.78 24.6392 51.0729 24.4958C51.8771 24.1021 51.2725 24.1328 58.5631 24.116L65.0694 24.101V25.7809V27.4609H59.3933C53.7299 27.4609 53.7167 27.4611 53.5065 27.5628C53.3602 27.6336 53.2552 27.734 53.1628 27.8912L53.0297 28.1176V31.6686C53.0297 35.1757 53.0311 35.2222 53.1313 35.4143C53.1872 35.5214 53.3259 35.6746 53.4395 35.7548L53.6461 35.9008L59.3578 35.9137L65.0694 35.9267V37.4825V39.0384L58.5874 39.0356C52.4208 39.0327 52.0886 39.0284 51.7591 38.9421V38.9421V38.9423ZM68.9309 38.9423C68.477 38.8233 67.9798 38.5674 67.6476 38.2819C67.2196 37.914 67.0066 37.6335 66.7681 37.1239C66.4783 36.5046 66.4818 36.5725 66.4818 31.5957C66.4818 26.4667 66.4678 26.6827 66.8517 25.9048C67.1561 25.2882 67.6321 24.8056 68.2326 24.5051C69.0442 24.0987 68.4073 24.1287 76.2335 24.1287H83.1897L83.2025 25.7942L83.2153 27.4598L76.9967 27.4725L70.7781 27.4852L70.6018 27.606C70.5049 27.6724 70.3751 27.8147 70.3135 27.9222L70.2015 28.1176V31.6687C70.2015 35.1757 70.2029 35.2222 70.3031 35.4144C70.359 35.5214 70.4977 35.6746 70.6113 35.7549L70.8179 35.9008L77.016 35.9137L83.214 35.9266V37.4825V39.0384L76.2456 39.0356C69.6042 39.0327 69.261 39.0284 68.9309 38.9421V38.9421L68.9309 38.9423ZM108.801 38.9628C108.333 38.8621 107.754 38.5563 107.374 38.208C106.881 37.7559 106.568 37.2485 106.386 36.6053C106.302 36.3091 106.296 36.005 106.296 31.5957C106.296 26.351 106.276 26.6769 106.645 25.9058C106.891 25.3926 107.551 24.7332 108.072 24.4818C108.852 24.1048 108.2 24.1348 116.013 24.1169L123.006 24.1009V25.7809V27.4609H116.85C110.906 27.4609 110.688 27.4637 110.514 27.553C110.291 27.6667 110.189 27.7773 110.092 28.0083C110.027 28.1639 110.018 28.6483 110.018 31.693C110.018 34.5272 110.03 35.2287 110.083 35.3559C110.17 35.5638 110.456 35.8101 110.685 35.8735C110.809 35.9079 112.853 35.9246 116.937 35.9249L123.006 35.9251V37.4817V39.0384L116.062 39.0348C110.313 39.0313 109.063 39.0192 108.801 38.9631V38.963L108.801 38.9628ZM124.709 37.2021L124.709 35.4143L124.828 35.1596C125.057 34.6684 125.241 34.5287 127.671 33.0064C128.931 32.2171 129.962 31.5604 129.962 31.5471C129.962 31.5234 126.931 29.572 125.854 28.902C125.212 28.5029 125.038 28.3464 124.878 28.0248L124.757 27.7823V25.9433V24.1044H126.63H128.503L128.505 25.2353L128.507 26.3664L131.141 28.0185C132.59 28.9273 133.81 29.6707 133.851 29.6707C133.893 29.6707 135.124 28.9163 136.588 27.9942L139.249 26.3177L139.252 25.211L139.254 24.1044H141.127H142.999V25.8538C142.999 27.5253 142.994 27.6157 142.895 27.8847C142.713 28.3728 142.443 28.5792 139.983 30.1116C138.766 30.87 137.772 31.5087 137.774 31.5309C137.779 31.5689 141.391 33.91 142.075 34.318C142.461 34.5479 142.718 34.8075 142.85 35.0982C142.943 35.3057 142.949 35.4127 142.95 37.1534L142.95 38.9898L141.99 38.9896C141.461 38.9895 140.618 38.9752 140.117 38.9576L139.205 38.9257V37.821V36.7162L136.56 35.0559C135.106 34.1427 133.888 33.3956 133.853 33.3956C133.819 33.3956 132.59 34.1563 131.123 35.086L128.455 36.7764L128.455 37.8831L128.454 38.9898H126.581H124.708L124.709 37.202L124.709 37.2021ZM73.7282 31.693V30.185H78.4711H83.214V31.693V33.201H78.4711H73.7282V31.693ZM113.52 31.693V30.185H118.263H123.006V31.693V33.201H118.263H113.52V31.693Z" fill="#293064"/>
<path d="M0.00681989 39.3946L32.3638 0.612265H46.7153L46.5916 0.746044L13.9924 39.4797H6.9632C0.273375 39.4797 -0.062518 39.4755 0.00681989 39.3946Z" fill="#DF343D"/>
</svg>
