<svg width="142" height="45" viewBox="0 0 142 45" fill="none" xmlns="http://www.w3.org/2000/svg">
<path d="M8.79533 23.4307C8.79533 23.3896 8.79533 23.3896 8.79533 23.3485C8.79533 23.0197 8.54873 22.7731 8.21993 22.7731C8.17883 22.7731 8.17883 22.7731 8.13773 22.7731H2.79478C1.27409 22.7731 0 21.5401 0 19.9783V12.3338C0 10.8131 1.23299 9.53898 2.79478 9.53898H8.13773H8.21993C8.54873 9.53898 8.79533 9.29238 8.79533 8.96358V8.92248V1.36015C8.79533 1.03135 9.04193 0.784752 9.37072 0.784752H12.6176C12.9464 0.784752 13.193 1.03135 13.193 1.36015V11.183C13.193 12.7037 11.96 13.9777 10.3982 13.9777H5.05526H4.97306C4.64426 13.9777 4.39766 14.2243 4.39766 14.5531V14.6353V17.7178C4.39766 17.7589 4.39766 17.7589 4.39766 17.8C4.39766 18.1288 4.64426 18.3754 4.97306 18.3754C5.01416 18.3754 5.01416 18.3754 5.05526 18.3754H10.4393C11.96 18.3754 13.2341 19.6084 13.2341 21.1702V35.3496C13.2341 35.3907 13.2341 35.3907 13.2341 35.4318C13.2341 35.7606 13.4807 36.0072 13.8095 36.0072C13.8506 36.0072 13.8506 36.0072 13.8917 36.0072H25.7695C25.8106 36.0072 25.8106 36.0072 25.8517 36.0072C26.1805 36.0072 26.4271 35.7606 26.4271 35.4318C26.4271 35.3907 26.4271 35.3907 26.4271 35.3496V27.7872C26.4271 27.4584 26.6737 27.2118 27.0025 27.2118H30.2493C30.5781 27.2118 30.8247 27.4584 30.8247 27.7872V37.6101C30.8247 39.1307 29.5918 40.4048 28.03 40.4048H11.5901C10.0694 40.4048 8.79533 39.1718 8.79533 37.6101V23.4307ZM35.2224 23.4307C35.2224 23.3896 35.2224 23.3896 35.2224 23.3485C35.2224 23.0197 34.9758 22.7731 34.647 22.7731C34.6059 22.7731 34.6059 22.7731 34.5648 22.7731H29.2219C27.7012 22.7731 26.4271 21.5401 26.4271 19.9783V5.79891C26.4271 5.75781 26.4271 5.75781 26.4271 5.71671C26.4271 5.38791 26.1805 5.14132 25.8517 5.14132C25.8106 5.14132 25.8106 5.14132 25.7695 5.14132H22.687C22.6459 5.14132 22.6459 5.14132 22.6048 5.14132C22.276 5.14132 22.0294 5.38791 22.0294 5.71671C22.0294 5.75781 22.0294 5.75781 22.0294 5.79891V30.9519C22.0294 31.2807 21.7828 31.5273 21.454 31.5273H18.2071C17.8784 31.5273 17.6318 31.2807 17.6318 30.9519V3.53843C17.6318 2.01774 18.8647 0.743652 20.4265 0.743652H28.0711C29.5918 0.743652 30.8658 1.97664 30.8658 3.53843V17.7178C30.8658 17.7589 30.8658 17.7589 30.8658 17.8C30.8658 18.1288 31.1124 18.3754 31.4412 18.3754C31.4823 18.3754 31.4823 18.3754 31.5234 18.3754H36.8664C38.3871 18.3754 39.6612 19.6084 39.6612 21.1702V39.7883C39.6612 40.1171 39.4146 40.3637 39.0858 40.3637H35.8389C35.5101 40.3637 35.2635 40.1171 35.2635 39.7883V23.4307H35.2224Z" fill="#43B02A"/>
<path d="M62.8842 41.3914C62.8842 43.1176 61.3635 44.7205 58.7332 44.7205H57.9523C55.363 44.7205 53.8423 43.4053 53.6368 42.0079L53.5957 41.7613L56.3905 41.5147L56.5138 41.6791C56.6782 42.0079 57.0892 42.2134 57.7879 42.2134H58.4044C59.1853 42.2134 59.8429 41.8024 59.8429 40.9393V39.9118C59.2675 40.2817 58.6099 40.4461 57.9523 40.4461H56.7604C54.7054 40.4461 53.5957 38.7199 53.5957 36.9115V32.1029C53.5957 30.2534 54.7054 28.5683 56.7604 28.5683H57.7879C58.7743 28.5683 59.7196 28.9793 60.5004 29.678L60.8292 28.6916H62.8842V41.3914ZM59.8429 37.1992V31.8563C59.473 31.4864 58.9798 31.2398 58.4455 31.2398H57.7879C57.1714 31.2398 56.596 31.6508 56.596 32.5139V36.5416C56.596 37.4047 57.1303 37.8157 57.7468 37.8157H58.3633C58.8976 37.8157 59.473 37.5691 59.8429 37.1992Z" fill="#53565A"/>
<path d="M70.853 31.3629H69.4145C68.6748 31.3629 67.8939 31.6506 67.4007 32.1438V40.3227H64.4004V28.7326H66.4554L66.7842 29.8422C67.6884 29.0614 68.757 28.6093 69.8666 28.6093H70.853V31.3629Z" fill="#53565A"/>
<path d="M84.0092 5.01802H82.2009C78.5019 5.01802 76.4058 7.3607 76.4058 9.90888V17.0191C76.4058 19.5673 78.543 21.91 82.2009 21.91H84.0092C87.5438 21.91 89.5577 19.5673 89.5577 17.0191V9.90888C89.5577 7.3607 87.5438 5.01802 84.0092 5.01802ZM85.2833 16.3204C85.2833 17.5534 84.4613 18.1288 83.475 18.1288H82.4475C81.4611 18.1288 80.6391 17.5534 80.6391 16.3204V10.5665C80.6391 9.37458 81.4611 8.75809 82.4475 8.75809H83.475C84.4613 8.75809 85.2833 9.37458 85.2833 10.5665V16.3204ZM70.0765 5.01802H68.9257C67.7749 5.01802 66.6652 5.38792 65.6788 5.96331V0.743652H61.4044V21.7045H65.6788V9.70338C66.2542 9.12799 67.0351 8.75809 67.8571 8.75809H68.4736C69.4189 8.75809 70.1587 9.29238 70.1587 10.5254V21.7045H74.433V9.86778C74.433 7.3196 72.9123 5.01802 70.0765 5.01802ZM57.8699 0.743652H54.9518L53.6777 5.18242H51.7871V8.96359H53.5955V21.7456H57.8699V8.96359H60.1303V5.18242H57.8699V0.743652ZM134.151 9.99108V9.62118C134.151 9.04579 134.767 8.79919 135.343 8.79919H136.247C136.946 8.79919 137.603 9.25128 137.603 10.1555V10.4432H141.59V9.99108C141.59 7.4018 139.781 5.05912 136.494 5.05912H134.808C131.562 5.05912 129.712 7.1141 129.712 9.37458V10.2377C129.712 15.0874 137.891 15.2107 137.891 16.8136V17.1424C137.891 17.8 137.192 18.1288 136.288 18.1288H135.261C134.315 18.1288 133.534 17.6767 133.534 16.7725V16.4437H129.301V17.1013C129.301 19.5673 131.233 21.91 134.767 21.91H136.576C139.946 21.91 142.001 19.7317 142.001 17.4301V16.6903C142.042 11.4707 134.151 11.6762 134.151 9.99108ZM122.52 5.01802H121.081C117.547 5.01802 115.533 7.484 115.533 10.1966V10.6076H119.807V10.4021C119.807 9.33348 120.506 8.79919 121.328 8.79919H122.15C123.013 8.79919 123.753 9.41568 123.753 10.6076V11.594L120.506 11.9639C117.67 12.2927 114.834 13.6489 114.834 16.4437V17.7178C114.834 19.8961 116.478 21.9511 119.478 21.9511H120.835C122.109 21.9511 123.465 21.3757 124.616 20.3893L125.068 21.7456H127.986V10.2788C128.027 7.484 126.013 5.01802 122.52 5.01802ZM123.794 17.1835C123.136 17.8 122.109 18.1288 121.122 18.1288H120.341C119.725 18.1288 119.149 17.7589 119.149 17.0602V16.567C119.149 15.7861 120.095 15.2107 121.163 15.0874L123.794 14.7175V17.1835ZM108.957 5.01802H107.806C106.244 5.01802 104.765 5.63451 103.573 6.7031C102.874 5.67561 101.723 5.01802 100.203 5.01802H99.0517C97.531 5.01802 96.1336 5.63451 94.9007 6.62091L94.4486 5.18242H91.5305V21.7045H95.7638V9.70338C96.3391 9.12799 97.12 8.75809 97.942 8.75809H98.5585C99.5038 8.75809 100.244 9.29238 100.244 10.5254V21.7045H104.518V9.66228C105.052 9.12799 105.874 8.75809 106.696 8.75809H107.313C108.217 8.75809 108.998 9.29238 108.998 10.5254V21.7045H113.272V9.86778C113.313 7.3196 111.793 5.01802 108.957 5.01802Z" fill="#53565A"/>
<path d="M75.2522 28.7327V36.6238C75.2522 37.4869 75.7864 37.8568 76.444 37.8568H76.8961C77.4715 37.8568 78.0469 37.6102 78.4168 37.2403V28.7327H81.4171V40.3639H79.3621L79.0333 39.3775C78.2113 40.0762 77.1838 40.4872 76.1563 40.4872H75.3343C73.3205 40.4872 72.293 38.8843 72.293 37.0348V28.7327H75.2522Z" fill="#53565A"/>
<path d="M84.9944 28.7327L85.2821 29.678C86.063 29.0204 86.9261 28.6094 87.9125 28.6094H89.0633C91.1183 28.6094 92.228 30.2945 92.228 32.1439V36.9937C92.228 38.8432 91.1183 40.5283 89.0633 40.5283H87.9536C87.2549 40.5283 86.5562 40.3228 85.9397 39.9529V44.7615H82.9395V28.7327H84.9944ZM85.9397 31.8562V37.1992C86.3096 37.5691 86.8439 37.8157 87.3782 37.8157H87.9947C88.6523 37.8157 89.1866 37.4047 89.1866 36.5416V32.5138C89.1866 31.6508 88.6523 31.2398 87.9947 31.2398H87.3782C86.885 31.2398 86.3096 31.4864 85.9397 31.8562Z" fill="#53565A"/>
<path d="M95.6369 28.7327L95.9246 29.678C96.7055 29.0204 97.5686 28.6094 98.555 28.6094H99.7058C101.761 28.6094 102.87 30.2945 102.87 32.1439V36.9937C102.87 38.8432 101.761 40.5283 99.7058 40.5283H98.6372C97.9385 40.5283 97.2398 40.3228 96.6233 39.9529V44.7615H93.623V28.7327H95.6369ZM96.5822 31.8562V37.1992C96.9521 37.5691 97.4864 37.8157 98.0207 37.8157H98.6372C99.2948 37.8157 99.8291 37.4047 99.8291 36.5416V32.5138C99.8291 31.6508 99.2948 31.2398 98.6372 31.2398H98.0207C97.5275 31.2398 96.9521 31.4864 96.5822 31.8562Z" fill="#53565A"/>
<path d="M107.23 35.5551V36.5826C107.23 37.4457 107.805 37.8567 108.504 37.8567H109.203C109.901 37.8567 110.477 37.4868 110.477 36.6648V36.5826H113.477V37.158C113.477 38.8842 112.08 40.4871 109.573 40.4871H108.298C105.709 40.4871 104.23 38.8431 104.23 37.0347V32.0616C104.23 30.2532 105.709 28.6093 108.298 28.6093H109.573C112.039 28.6093 113.477 30.2532 113.477 32.0616V35.5551H107.23ZM107.23 33.2535H110.477V32.5137C110.477 31.6917 109.901 31.2396 109.203 31.2396H108.504C107.805 31.2396 107.23 31.6506 107.23 32.5137V33.2535Z" fill="#53565A"/>
</svg>
