<svg width="84" height="13" viewBox="0 0 84 13" fill="none" xmlns="http://www.w3.org/2000/svg">
<g clip-path="url(#clip0_35_919)">
<path d="M10.234 3.25C10.066 1.00628 8.442 0 5.068 0C2.044 0 0.224 1.19665 0.224 3.14121C0.224 4.21548 0.672 5.03138 1.54 5.50732C2.184 5.86088 2.814 6.05125 4.578 6.43201C6.454 6.81276 6.58 6.86715 6.608 7.37029C6.636 7.90063 6.16 8.21339 5.334 8.21339C4.34 8.21339 3.892 7.85983 3.78 7.01673H0C0.21 9.46443 1.96 10.6611 5.39 10.6611C8.554 10.6611 10.514 9.30125 10.514 7.09832C10.514 5.26255 9.436 4.41946 6.412 3.87552C4.368 3.52197 4.102 3.41318 4.102 2.91004C4.102 2.51569 4.494 2.29812 5.222 2.29812C6.132 2.29812 6.468 2.52929 6.608 3.2364L10.234 3.25ZM18.816 5.34414C18.816 6.82636 18.214 7.60146 17.052 7.60146C15.904 7.60146 15.302 6.78556 15.302 5.27615C15.302 3.80753 15.946 2.95083 17.052 2.95083C18.256 2.95083 18.816 3.72594 18.816 5.34414ZM22.806 5.41213C22.806 2.16213 21.014 0.013595 18.298 0.013595C16.968 0.013595 16.072 0.407947 15.274 1.37343V0.285562H11.438V13H15.428V9.30126C16.226 10.2667 17.15 10.6883 18.424 10.6883C21.098 10.6883 22.806 8.63494 22.806 5.41213ZM27.454 4.21548C27.664 3.05962 28.322 2.47489 29.372 2.47489C30.478 2.47489 31.122 3.05962 31.206 4.21548H27.454ZM27.44 6.16004H35.112V5.88807C35.112 2.32531 32.872 0 29.442 0C26.012 0 23.618 2.24372 23.618 5.42573C23.618 8.56695 25.97 10.6611 29.498 10.6611C31.71 10.6611 33.53 9.7636 34.44 8.30857L31.416 6.93515C30.814 8.00941 30.226 8.17259 29.47 8.17259C28.238 8.18619 27.524 7.47908 27.44 6.16004ZM40.082 0.271967H36.246V10.3891H40.236V4.82741C40.236 3.71234 40.796 3.08682 41.804 3.08682C42.728 3.08682 43.162 3.58996 43.162 4.74582V10.4027H47.152V4.18828C47.152 2.76046 46.956 1.98535 46.438 1.31904C45.808 0.503136 44.646 0 43.372 0C41.972 0 41.02 0.435144 40.068 1.52301L40.082 0.271967ZM52.654 0.271967H48.818V10.3891H52.808V4.82741C52.808 3.71234 53.368 3.08682 54.376 3.08682C55.3 3.08682 55.734 3.58996 55.734 4.74582V10.4027H59.724V4.18828C59.724 2.76046 59.528 1.98535 59.01 1.31904C58.38 0.503136 57.218 0 55.944 0C54.544 0 53.592 0.435144 52.654 1.52301V0.271967ZM64.638 4.21548C64.848 3.05962 65.506 2.47489 66.556 2.47489C67.662 2.47489 68.306 3.05962 68.39 4.21548H64.638ZM64.61 6.16004H72.282V5.88807C72.282 2.32531 70.042 0 66.612 0C63.182 0 60.788 2.24372 60.788 5.42573C60.788 8.56695 63.14 10.6611 66.668 10.6611C68.88 10.6611 70.7 9.7636 71.61 8.30857L68.6 6.94874C67.998 8.02301 67.41 8.18619 66.654 8.18619C65.408 8.18619 64.694 7.47908 64.61 6.16004ZM84 4.37866V4.18828C84 2.76046 83.804 1.98535 83.286 1.31904C82.656 0.503136 81.494 0 80.22 0C78.82 0 77.952 0.380751 77.224 1.52301V0.271967H73.388V10.3891H77.378V4.82741C77.378 3.71234 77.644 3.08682 78.652 3.08682C79.576 3.08682 80.01 3.58996 80.01 4.74582V6.20083L84 4.37866Z" fill="#004B91"/>
</g>
<defs>
<clipPath id="clip0_35_919">
<rect width="84" height="13" fill="white"/>
</clipPath>
</defs>
</svg>
