<svg width="91" height="20" viewBox="0 0 91 20" fill="none" xmlns="http://www.w3.org/2000/svg">
<path d="M0 9.2116V17.6747H4.81372H9.62744V15.5321V13.3896H7.23398H4.84051V7.06905V0.748526H2.42026H0V9.2116Z" fill="#5F5046"/>
<path d="M12.0735 3.70346V6.6584H9.07278H6.07202V8.80095V10.9435H9.07278H12.0735V14.3091V17.6747H14.5027H16.9319V9.2116V0.748526H14.5027H12.0735V3.70346Z" fill="#877873"/>
<path d="M81.5558 10.4981C81.3111 10.5391 81.0842 10.7142 80.9717 10.9535C80.9145 11.0732 80.9056 11.1089 80.8985 11.2608C80.8931 11.4055 80.8967 11.4519 80.9306 11.5484C81.0039 11.7663 81.1378 11.9235 81.3325 12.0199C81.4718 12.0914 81.5754 12.1092 81.763 12.1003C81.9112 12.0914 81.947 12.0824 82.0631 12.0271C82.5292 11.7949 82.6614 11.2125 82.3417 10.7892C82.1756 10.5695 81.8505 10.448 81.5558 10.4981Z" fill="#5F5046"/>
<path d="M36.6789 10.6401C36.5611 10.6472 36.4003 10.6669 36.3217 10.6829C35.8752 10.7776 35.4858 11.0651 35.2947 11.4419C35.175 11.6794 35.1232 11.958 35.1053 12.4634L35.0928 12.7992H34.7463H34.4016V13.3974V13.9957H34.7499H35.0982V15.8351V17.6746H35.7948H36.4914L36.495 15.8387L36.5003 14.0046L37.0058 13.9993L37.5095 13.9957V13.3974V12.7992L37.0058 12.7956L36.5003 12.7902V12.5045C36.5021 12.2831 36.5093 12.1991 36.5325 12.1295C36.62 11.8705 36.8701 11.7634 37.322 11.7866C37.4309 11.7937 37.5452 11.8027 37.5774 11.8098L37.6345 11.8205V11.249V10.6776L37.5774 10.6669C37.5113 10.6526 37.0308 10.6204 36.9469 10.624C36.9183 10.624 36.7968 10.6311 36.6789 10.6401Z" fill="#5F5046"/>
<path d="M73.09 14.21V17.6746H73.8134H74.5368V14.21V10.7454H73.8134H73.09V14.21Z" fill="#5F5046"/>
<path d="M23.6851 14.3082V17.6746H25.7392H27.7932V16.9959V16.3173H26.4715H25.1497V13.6296V10.9419H24.4174H23.6851V14.3082Z" fill="#5F5046"/>
<path d="M60.284 14.3082V17.6746H61.0163H61.7486V16.2727V14.8708H63.0972H64.4457V16.2727V17.6746H65.187H65.9283V14.3082V10.9419H65.187H64.4457V12.2366V13.5314H63.0972H61.7486V12.2366V10.9419H61.0163H60.284V14.3082Z" fill="#5F5046"/>
<path d="M69.0891 12.6832C68.0871 12.8207 67.2851 13.4529 66.9582 14.3637C66.8564 14.6458 66.8296 14.8298 66.8296 15.237C66.8296 15.6549 66.8475 15.7727 66.9564 16.1031C67.2458 16.971 67.9942 17.5925 68.9569 17.7657C69.2534 17.8193 69.7428 17.8193 70.0358 17.7675C71.0967 17.5764 71.9148 16.83 72.1417 15.8442C72.4649 14.4333 71.6505 13.1029 70.2465 12.7439C69.9107 12.66 69.4445 12.635 69.0891 12.6832ZM69.8214 13.9958C70.2769 14.1065 70.6055 14.4226 70.7359 14.8834C70.7663 14.9905 70.7752 15.0691 70.7752 15.228C70.7752 15.4763 70.7413 15.6245 70.6395 15.8352C70.5359 16.0495 70.3215 16.2638 70.1072 16.3674C69.7625 16.5335 69.4142 16.5549 69.0659 16.4335C68.8855 16.371 68.7587 16.2888 68.605 16.1388C68.4461 15.9799 68.3443 15.7942 68.2835 15.5495C68.2282 15.3334 68.2407 15.0155 68.3121 14.8012C68.4246 14.4673 68.689 14.1833 69.0087 14.0529C69.2516 13.9547 69.5553 13.9333 69.8214 13.9958Z" fill="#5F5046"/>
<path d="M77.696 12.6832C76.5368 12.8475 75.674 13.6493 75.4722 14.7459C75.4293 14.9762 75.4293 15.4745 75.4704 15.7102C75.5365 16.0692 75.6705 16.4121 75.8598 16.7014C75.9777 16.88 76.3046 17.2086 76.4832 17.3264C76.8886 17.5961 77.3227 17.739 77.871 17.7836C78.1479 17.805 78.4551 17.789 78.7123 17.7354C79.1642 17.6425 79.6054 17.405 79.993 17.0425L80.1537 16.8925L80.118 16.8532C80.0984 16.8317 79.8912 16.6282 79.659 16.4031L79.2339 15.9924L79.1196 16.0995C78.9749 16.2335 78.8695 16.3067 78.7284 16.371C78.3283 16.5496 77.8335 16.5281 77.4691 16.3138C77.3405 16.2388 77.1173 16.0156 77.0405 15.8852C76.8136 15.5031 76.8047 15.0012 77.0154 14.5941C77.094 14.4423 77.337 14.1905 77.4834 14.1065C77.6531 14.0119 77.846 13.9565 78.0496 13.9458C78.4712 13.9244 78.8088 14.0494 79.1213 14.3405L79.2357 14.4476L79.6322 14.0583C79.8501 13.8422 80.0573 13.6404 80.0912 13.6083L80.152 13.5493L80.0823 13.4761C79.893 13.2815 79.5697 13.0475 79.3089 12.9171C79.1356 12.8296 78.8534 12.7368 78.6534 12.6993C78.4337 12.66 77.9175 12.651 77.696 12.6832Z" fill="#5F5046"/>
<path d="M56.2647 12.6992C55.1269 12.8635 54.3356 13.5939 54.1177 14.6779C54.0641 14.9458 54.0605 15.4976 54.1105 15.7727C54.1784 16.1459 54.3445 16.5388 54.5499 16.8156C55.1108 17.5674 56.1646 17.9139 57.3185 17.7264C57.8472 17.6389 58.3277 17.4067 58.6867 17.0603L58.8385 16.9156L58.4366 16.5156L58.0348 16.1138L57.949 16.1852C57.6739 16.4156 57.3828 16.5406 57.0256 16.5852C56.2718 16.6799 55.6181 16.3173 55.5234 15.7494L55.5109 15.6744H57.2881H59.0636L59.0761 15.5655C59.0814 15.5048 59.0868 15.3637 59.0868 15.2512C59.0868 13.9314 58.392 12.9831 57.2381 12.726C57.0256 12.6778 56.5076 12.6653 56.2647 12.6992ZM56.9238 13.8439C57.3203 13.9386 57.6186 14.2582 57.6668 14.644L57.6793 14.7458H56.604H55.527L55.5395 14.6547C55.5841 14.3207 55.8235 14.0314 56.1575 13.9046C56.3897 13.8171 56.7023 13.7921 56.9238 13.8439Z" fill="#5F5046"/>
<path d="M46.9049 12.7027C46.6799 12.7438 46.5673 12.7777 46.4227 12.8474C46.2816 12.9152 46.2298 12.9527 46.1101 13.0742C46.0208 13.1635 45.9422 13.2635 45.9047 13.3349L45.8422 13.451L45.8368 13.1242L45.8332 12.7992H45.1188H44.4043V15.2369V17.6746H45.1188H45.8314L45.8386 16.3405C45.8457 14.8422 45.8404 14.8958 45.9797 14.6065C46.1047 14.3421 46.3155 14.1725 46.6281 14.0814C46.7531 14.0457 46.8103 14.0403 47.0746 14.0403C47.2425 14.0403 47.4158 14.0457 47.464 14.0528L47.548 14.0671V13.3992C47.548 12.7795 47.5462 12.7313 47.5176 12.7188C47.4801 12.7045 46.971 12.6902 46.9049 12.7027Z" fill="#5F5046"/>
<path d="M85.9776 12.7188C85.5865 12.792 85.2221 13.0295 85.072 13.3117C85.0488 13.3546 85.0256 13.3885 85.0185 13.3885C85.0095 13.3885 85.0042 13.2563 85.0042 13.0938V12.7992H84.2986H83.5931V15.2369V17.6746H84.2968H85.0024L85.0095 16.2066C85.0149 14.8654 85.0185 14.7279 85.047 14.6297C85.131 14.3421 85.2971 14.1314 85.5168 14.026C85.6293 13.9725 85.6508 13.9689 85.8258 13.9689C86.0026 13.9689 86.0223 13.9725 86.133 14.0278C86.3241 14.1207 86.4385 14.2796 86.5063 14.5457C86.5385 14.6725 86.5403 14.7547 86.5403 16.178V17.6746H87.2547H87.9674L87.9746 16.1959C87.9799 14.5493 87.9746 14.6368 88.1067 14.3832C88.1889 14.2279 88.3568 14.0689 88.4997 14.0118C88.5836 13.9778 88.6372 13.9707 88.7908 13.9689C88.957 13.9689 88.9891 13.9743 89.0802 14.0171C89.2124 14.0778 89.3249 14.1939 89.3964 14.3368C89.5053 14.56 89.5053 14.5529 89.5053 16.1869V17.6746H90.2198H90.936L90.9289 15.9834C90.9235 14.1189 90.9253 14.1653 90.8092 13.8135C90.7056 13.5046 90.5734 13.2938 90.3555 13.0903C90.0876 12.8402 89.7518 12.7152 89.2999 12.6974C88.5604 12.667 88.021 12.8724 87.7245 13.2974C87.6781 13.3617 87.6352 13.4224 87.6298 13.4296C87.6227 13.4367 87.5816 13.3849 87.5405 13.3135C87.3976 13.0742 87.1672 12.8831 86.9046 12.7884C86.6528 12.6974 86.2563 12.667 85.9776 12.7188Z" fill="#5F5046"/>
<path d="M30.4003 12.7225C30.3663 12.726 30.2574 12.7457 30.1609 12.7653C28.9624 13.0136 28.1747 14.1369 28.2747 15.4548C28.314 15.9674 28.4426 16.3531 28.7052 16.7478C29.2143 17.5068 30.202 17.8836 31.1755 17.6907C31.6042 17.605 31.9578 17.3854 32.1025 17.1139L32.1418 17.0407L32.1472 17.3586L32.1507 17.6747H32.8652H33.5797V15.237V12.7993H32.8652H32.1507V13.1029C32.1507 13.2689 32.1454 13.4065 32.1382 13.4065C32.1293 13.4065 32.1007 13.3618 32.0721 13.3082C31.9685 13.11 31.6953 12.9136 31.3773 12.81C31.1273 12.7278 30.7057 12.6903 30.4003 12.7225ZM31.2291 14.0404C31.4952 14.0958 31.7113 14.2119 31.8917 14.3958C32.2615 14.7762 32.3365 15.3691 32.0739 15.8352C32.0025 15.962 31.7596 16.2067 31.6292 16.2799C31.4077 16.4049 31.104 16.4728 30.8611 16.4531C30.5432 16.4263 30.2753 16.3049 30.0609 16.087C29.8591 15.8834 29.7591 15.6709 29.7198 15.3655C29.6876 15.1084 29.7644 14.7762 29.9073 14.5619C29.9823 14.4494 30.1627 14.2726 30.2753 14.2012C30.5378 14.0351 30.904 13.9744 31.2291 14.0404Z" fill="#5F5046"/>
<path d="M40.0222 12.7296C39.406 12.81 38.829 13.1493 38.4468 13.6565C38.3164 13.8279 38.1431 14.1673 38.0753 14.3798C37.8591 15.053 37.9163 15.8603 38.22 16.4674C38.5236 17.0764 39.063 17.505 39.7275 17.6658C40.5723 17.8693 41.4922 17.6336 41.7584 17.1443L41.8137 17.0407L41.8155 17.3568V17.6747H42.53H43.2444V15.237V12.7993H42.53H41.8155V13.1065L41.8137 13.4154L41.7673 13.3261C41.6923 13.1832 41.5101 13.0154 41.3243 12.9207C41.1296 12.8207 40.9724 12.7725 40.7349 12.7368C40.542 12.7082 40.2187 12.7046 40.0222 12.7296ZM40.9081 14.0405C41.3547 14.1351 41.7012 14.428 41.8459 14.8387C41.9084 15.0155 41.9227 15.3084 41.878 15.5031C41.7923 15.896 41.4958 16.2281 41.1082 16.3692C40.3723 16.6371 39.6096 16.2549 39.4238 15.5227C39.3488 15.2316 39.4078 14.8566 39.5685 14.5905C39.6918 14.3869 39.9329 14.1833 40.1526 14.1012C40.383 14.0137 40.6759 13.9905 40.9081 14.0405Z" fill="#5F5046"/>
<path d="M50.0127 12.722C49.484 12.7755 48.9589 13.0327 48.5802 13.4184C47.9658 14.0453 47.7265 15.0168 47.9587 15.9329C48.1015 16.4991 48.4481 16.9955 48.9053 17.2902C49.3715 17.592 49.9413 17.7259 50.5325 17.6741C51.0898 17.6259 51.5256 17.4402 51.731 17.1652L51.7846 17.0937L51.7757 17.3348C51.7453 18.0635 51.447 18.4635 50.8129 18.6224C50.6022 18.676 50.1396 18.6885 49.9056 18.6492C49.5894 18.5939 49.2286 18.4635 48.9268 18.2938L48.7821 18.2135L48.4516 18.7421L48.1194 19.2707L48.2391 19.3493C48.3998 19.4511 48.791 19.6422 48.9589 19.6975C49.4662 19.8672 49.9699 19.9368 50.5629 19.919C50.8969 19.91 51.0541 19.8886 51.3291 19.819C51.8704 19.6797 52.3633 19.3689 52.6581 18.9796C52.842 18.7349 53.0081 18.3367 53.0832 17.9599C53.1635 17.5527 53.1618 17.5866 53.1689 15.1418L53.176 12.7988H52.4598H51.7453V13.1148V13.4327L51.7114 13.3613C51.5328 12.9684 50.9469 12.7041 50.2807 12.713C50.1681 12.7148 50.0467 12.7184 50.0127 12.722ZM50.9683 14.0739C51.4988 14.2471 51.8346 14.6935 51.8346 15.2275C51.8346 15.8401 51.3935 16.324 50.7433 16.4258C50.3718 16.483 49.9681 16.3562 49.693 16.0937C49.5358 15.9436 49.443 15.7954 49.3751 15.5936C49.334 15.4686 49.3269 15.4222 49.3286 15.2275C49.3286 15.0346 49.334 14.9846 49.3751 14.8614C49.5162 14.4328 49.8395 14.1435 50.2896 14.0381C50.4611 13.9988 50.7915 14.0149 50.9683 14.0739Z" fill="#5F5046"/>
<path d="M81.0032 15.2369V17.6746H81.7177H82.4321V15.2369V12.7992H81.7177H81.0032V15.2369Z" fill="#5F5046"/>
</svg>
